.
 
http://www.scenetime.com    -  Hottest private tracker on the net. !!!

New release on http://www.scenetime.com

        Seed back for speed


...................................NFO:.................................................ooooo oooo   oooo oooooooo8 oooooooooo  o88   oooooooooo       o      ooooo       
 888   8888o  88 888         888    888 oooo   888    888     888      888        
 888   88 888o88  888oooooo  888oooo88   888   888oooo88     8  88     888        
 888   88   8888         888 888         888   888  88o     8oooo88    888      o 
o888o o88o    88 o88oooo888 o888o       o888o o888o  88o8 o88o  o888o o888ooooo88 

 
TITLE: 

War Horse 2012 DVDSCR AC3 XViD - INSPiRAL

IMDB: 
 
http://www.imdb.com/title/tt1568911/


SOURCES:

VIDEO - War.Horse.2011.DVDSCR.NTSC.DVDR-CM8 THANKS
AUDIO - War.Horse.2011.DVDSCR.NTSC.DVDR-CM8 THANKS
SUBS  - None Add

STATS:

Video
ID                               : 0
Format                           : MPEG-4 Visual
Format profile                   : Advanced Simple@L5
Format settings, BVOP            : 2
Format settings, QPel            : No
Format settings, GMC             : No warppoints
Format settings, Matrix          : Default (MPEG)
Muxing mode                      : Packed bitstream
Codec ID                         : XVID
Codec ID/Hint                    : XviD
Duration                         : 2h 26mn
Bit rate                         : 1 915 Kbps
Width                            : 720 pixels
Height                           : 304 pixels
Display aspect ratio             : 2.35:1
Frame rate                       : 23.976 fps
Color space                      : YUV
Chroma subsampling               : 4:2:0
Bit depth                        : 8 bits
Scan type                        : Progressive
Compression mode                 : Lossy
Bits/(Pixel*Frame)               : 0.365
Stream size                      : 1.96 GiB (81%)
Writing library                  : XviD 64

Audio
ID                               : 1
Format                           : AC-3
Format/Info                      : Audio Coding 3
Mode extension                   : CM (complete main)
Codec ID                         : 2000
Duration                         : 2h 26mn
Bit rate mode                    : Constant
Bit rate                         : 448 Kbps
Channel(s)                       : 6 channels
Channel positions                : Front: L C R, Side: L R, LFE
Sampling rate                    : 48.0 KHz
Bit depth                        : 16 bits
Compression mode                 : Lossy
Stream size                      : 470 MiB (19%)
Alignment                        : Aligned on interleaves
Interleave, duration             : 42 ms (1.00 video frame)
Interleave, preload duration     : 512 ms


NOTES:

Ok this is a rip of the CM8 dvdr ...which was nice but had some interlace issues..
Used the normal ivtc fix but still noticed when scrolling through frame by frame there was still some interlace issues
so had to use another deinterlace filter and opt to blend &lt;&lt;&lt; now this fixed all issues :D
On top of that i changed the brightness and contrast aswell as using a heavy noise filter and finally adding some
sharpness back to it.
Audio was just stripped and remuxed to the final encode.....
Oh opted for the large file size as i wanted to keep the 5.1 track aswell as keeping a decent bitrate on the video.

SCREENS:

[IMG]http://i.imgur.com/IIsij.png[/IMG]
[IMG]http://i.imgur.com/WjWMj.png[/IMG]
[IMG]http://i.imgur.com/0T8bG.png[/IMG]
[IMG]http://i.imgur.com/WWxFz.png[/IMG]


GREETZ: 

Past,Present and Future